<svg xmlns="http://www.w3.org/2000/svg" viewBox="0 0 300 170" role="img" aria-label="دارة كهربائية تسلسلية" class="lesson-figure"><line x1="40" y1="45" x2="43" y2="45" stroke="#1e293b" fill="none" stroke-width="2" stroke-linecap="round" stroke-linejoin="round"/><circle cx="43" cy="45" r="2" fill="#1e293b" stroke="none"/><circle cx="67" cy="45" r="2" fill="#1e293b" stroke="none"/><line x1="43" y1="45" x2="65" y2="34" stroke="#1e293b" fill="none" stroke-width="2" stroke-linecap="round" stroke-linejoin="round"/><text x="55" y="65" font-size="10" text-anchor="middle" font-family="sans-serif" fill="#1e293b" stroke="none">K</text><line x1="67" y1="45" x2="138" y2="45" stroke="#1e293b" fill="none" stroke-width="2" stroke-linecap="round" stroke-linejoin="round"/><circle cx="150" cy="45" r="12" stroke="#1e293b" fill="none" stroke-width="2" stroke-linecap="round" stroke-linejoin="round"/><text x="150" y="49" font-size="12" text-anchor="middle" font-family="sans-serif" font-weight="bold" fill="#1e293b" stroke="none">A</text><text x="150" y="65" font-size="10" text-anchor="middle" font-family="sans-serif" fill="#1e293b" stroke="none">A</text><line x1="162" y1="45" x2="235" y2="45" stroke="#1e293b" fill="none" stroke-width="2" stroke-linecap="round" stroke-linejoin="round"/><circle cx="245" cy="45" r="10" stroke="#1e293b" fill="none" stroke-width="2" stroke-linecap="round" stroke-linejoin="round"/><line x1="238" y1="38" x2="252" y2="52" stroke="#1e293b" fill="none" stroke-width="2" stroke-linecap="round" stroke-linejoin="round"/><line x1="238" y1="52" x2="252" y2="38" stroke="#1e293b" fill="none" stroke-width="2" stroke-linecap="round" stroke-linejoin="round"/><text x="245" y="65" font-size="10" text-anchor="middle" font-family="sans-serif" fill="#1e293b" stroke="none">L</text><line x1="255" y1="45" x2="260" y2="45" stroke="#1e293b" fill="none" stroke-width="2" stroke-linecap="round" stroke-linejoin="round"/><line x1="40" y1="45" x2="40" y2="81" stroke="#1e293b" fill="none" stroke-width="2" stroke-linecap="round" stroke-linejoin="round"/><line x1="26" y1="86" x2="54" y2="86" stroke="#1e293b" fill="none" stroke-width="2" stroke-linecap="round" stroke-linejoin="round"/><line x1="33" y1="95" x2="47" y2="95" stroke="#1e293b" fill="none" stroke-width="2" stroke-linecap="round" stroke-linejoin="round"/><line x1="40" y1="99" x2="40" y2="135" stroke="#1e293b" fill="none" stroke-width="2" stroke-linecap="round" stroke-linejoin="round"/><text x="40" y="153" font-size="10" text-anchor="middle" font-family="sans-serif" fill="#1e293b" stroke="none">G</text><line x1="260" y1="45" x2="260" y2="135" stroke="#1e293b" fill="none" stroke-width="2" stroke-linecap="round" stroke-linejoin="round"/><line x1="40" y1="135" x2="260" y2="135" stroke="#1e293b" fill="none" stroke-width="2" stroke-linecap="round" stroke-linejoin="round"/><circle cx="40" cy="45" r="3" fill="#1e293b" stroke="none"/><circle cx="260" cy="45" r="3" fill="#1e293b" stroke="none"/><circle cx="40" cy="135" r="3" fill="#1e293b" stroke="none"/><circle cx="260" cy="135" r="3" fill="#1e293b" stroke="none"/><polygon points="150,135 156,131 156,139" fill="#1e293b" stroke="none"/><line x1="156" y1="135" x2="163" y2="135" stroke="#1e293b" fill="none" stroke-width="2" stroke-linecap="round" stroke-linejoin="round"/></svg>