<svg xmlns="http://www.w3.org/2000/svg" viewBox="0 0 300 240" role="img" aria-label="رمل" class="lesson-figure"><g transform="rotate(-30 105 140)"><path d="M 80 82 L 80 172 Q 80 187 95 187 L 115 187 Q 130 187 130 172 L 130 82" fill="rgba(125,180,220,0.18)" stroke="currentColor" stroke-width="2" stroke-linecap="round" stroke-linejoin="round"/><path d="M 78 84 L 86 80" stroke="currentColor" fill="none" stroke-width="2" stroke-linecap="round" stroke-linejoin="round"/><line x1="84" y1="88" x2="84" y2="174" stroke="rgba(255,255,255,0.22)" stroke-width="1.5" stroke-linecap="round"/><rect x="82" y="95" width="46" height="88" fill="rgba(120,180,220,0.35)" stroke="none"/><line x1="83" y1="95" x2="127" y2="95" stroke="rgba(200,225,245,0.45)" stroke-width="1" stroke-linecap="round"/><path d="M 83 172 Q 105 182 127 172 L 127 184 Q 127 187 115 187 L 95 187 Q 83 187 83 184 Z" fill="rgba(160,140,100,0.55)" stroke="none"/><circle cx="96" cy="180" r="2" fill="rgba(140,120,80,0.6)" stroke="none"/><circle cx="107" cy="182" r="2.5" fill="rgba(140,120,80,0.5)" stroke="none"/><circle cx="116" cy="179" r="1.8" fill="rgba(140,120,80,0.55)" stroke="none"/></g><path d="M 155 76 Q 180 100 212 132" stroke="rgba(120,180,220,0.6)" stroke-width="3.5" fill="none" stroke-linecap="round"/><path d="M 155 76 Q 180 100 212 132" stroke="rgba(200,230,250,0.3)" stroke-width="1.5" fill="none" stroke-linecap="round"/><polygon points="209,128 217,134 210,137" fill="currentColor" stroke="none"/><path d="M 205 132 L 205 208 Q 205 218 215 218 L 255 218 Q 265 218 265 208 L 265 132" fill="rgba(125,180,220,0.18)" stroke="currentColor" stroke-width="2" stroke-linecap="round" stroke-linejoin="round"/><path d="M 203 134 L 211 130" stroke="currentColor" fill="none" stroke-width="2" stroke-linecap="round" stroke-linejoin="round"/><line x1="209" y1="138" x2="209" y2="206" stroke="rgba(255,255,255,0.22)" stroke-width="1.5" stroke-linecap="round"/><rect x="207" y="172" width="56" height="44" fill="rgba(120,180,220,0.35)" stroke="none"/><line x1="208" y1="172" x2="262" y2="172" stroke="rgba(200,225,245,0.45)" stroke-width="1" stroke-linecap="round"/><text x="80" y="215" font-size="9" text-anchor="middle" font-family="sans-serif" fill="currentColor" stroke="none">رمل</text><text x="235" y="212" font-size="9" text-anchor="middle" font-family="sans-serif" fill="currentColor" stroke="none">ماء</text><text x="105" y="235" font-size="9" text-anchor="middle" font-family="sans-serif" fill="currentColor" stroke="none">راسب</text><text x="235" y="235" font-size="9" text-anchor="middle" font-family="sans-serif" fill="currentColor" stroke="none">سائل صافٍ</text></svg>