<svg xmlns="http://www.w3.org/2000/svg" viewBox="0 0 260 250" role="img" aria-label="رمل + ماء" class="lesson-figure"><line x1="40" y1="212" x2="100" y2="212" stroke="currentColor" fill="none" stroke-width="2" stroke-linecap="round" stroke-linejoin="round"/><line x1="60" y1="212" x2="60" y2="82" stroke="currentColor" fill="none" stroke-width="2" stroke-linecap="round" stroke-linejoin="round"/><line x1="60" y1="72" x2="140" y2="72" stroke="currentColor" fill="none" stroke-width="2" stroke-linecap="round" stroke-linejoin="round"/><circle cx="140" cy="72" r="8" stroke="currentColor" fill="none" stroke-width="2" stroke-linecap="round" stroke-linejoin="round"/><polygon points="115,42 165,42 140,92" fill="rgba(125,180,220,0.18)" stroke="currentColor" stroke-width="2" stroke-linecap="round" stroke-linejoin="round"/><polygon points="118,57 162,57 140,92" fill="rgba(160,140,100,0.5)" stroke="none"/><text x="140" y="34" font-size="9" text-anchor="middle" font-family="sans-serif" fill="currentColor" stroke="none">خليط رمل + ماء</text><ellipse cx="140" cy="102" rx="2.5" ry="4" fill="currentColor" stroke="none"/><path d="M 110 112 L 110 182 Q 110 192 120 192 L 160 192 Q 170 192 170 182 L 170 112" fill="rgba(125,180,220,0.18)" stroke="currentColor" stroke-width="2" stroke-linecap="round" stroke-linejoin="round"/><path d="M 108 114 L 116 110" stroke="currentColor" fill="none" stroke-width="2" stroke-linecap="round" stroke-linejoin="round"/><line x1="114" y1="118" x2="114" y2="180" stroke="rgba(255,255,255,0.22)" stroke-width="1.5" stroke-linecap="round"/><rect x="112" y="150" width="56" height="40" fill="rgba(120,180,220,0.35)" stroke="none"/><line x1="113" y1="150" x2="167" y2="150" stroke="rgba(200,225,245,0.45)" stroke-width="1" stroke-linecap="round"/><text x="140" y="183" font-size="9" text-anchor="middle" font-family="sans-serif" fill="currentColor" stroke="none">ماء</text><text x="140" y="215" font-size="10" text-anchor="middle" font-family="sans-serif" fill="currentColor" stroke="none">رشاحة</text><text x="60" y="207" font-size="10" text-anchor="end" font-family="sans-serif" fill="currentColor" stroke="none">حامل</text></svg>